<?xml version="1.0" encoding="utf-8"?>
<!-- Generator: Adobe Illustrator 15.0.0, SVG Export Plug-In . SVG Version: 6.00 Build 0)  -->
<!DOCTYPE svg PUBLIC "-//W3C//DTD SVG 1.1 Basic//EN" "http://www.w3.org/Graphics/SVG/1.1/DTD/svg11-basic.dtd">
<svg version="1.1" baseProfile="basic" id="Capa_1" xmlns="http://www.w3.org/2000/svg" xmlns:xlink="http://www.w3.org/1999/xlink"
	 x="0px" y="0px" width="639.356px" height="216.021px" viewBox="641.288 422.308 639.356 216.021" xml:space="preserve">
<g>
	<path fill="#FFFFFF" d="M928.377,473.247v112.562c-0.126,4.356-1.681,8.059-4.667,11.105c-2.986,3.052-6.659,4.696-11.014,4.947
		h-10.08c-2.239,0-4.357-0.438-6.347-1.307c-1.992-0.869-3.704-2.021-5.134-3.454c-1.433-1.429-2.584-3.108-3.453-5.04
		c-0.872-1.928-1.308-4.013-1.308-6.253V476.795c0-0.994,0.403-1.835,1.214-2.521c0.809-0.683,1.709-1.027,2.707-1.027h9.146v110.31
		c0,1.873,0.652,3.491,1.96,4.862c1.307,1.37,2.894,2.057,4.76,2.057h2.054c1.989,0,3.669-0.653,5.04-1.963
		c1.367-1.308,2.053-2.961,2.053-4.956v-110.31H928.377z"/>
	<path fill="#FFFFFF" d="M1060.905,600.929h-13.066v-45.667c0-3.234,0.314-6.413-1.054-7.533c-1.37-1.12-3.986-0.68-5.854-0.68
		h-6.906v53.88h-13.066V473.247h23.782c2.229,0,4.334,0.405,6.317,1.215c1.979,0.811,3.684,1.931,5.106,3.358
		c1.423,1.434,2.569,3.112,3.438,5.04c0.865,1.933,1.301,4.015,1.301,6.254v39.573c0,2.491-0.276,4.48-0.828,5.974
		c-0.554,1.493-1.138,2.613-1.75,3.359c-0.735,0.873-1.534,1.494-2.392,1.867c0.856,0.499,1.655,1.307,2.392,2.427
		c0.612,0.997,1.196,2.272,1.75,3.826c0.552,1.558,0.828,3.518,0.828,5.881L1060.905,600.929L1060.905,600.929z M1046.875,529.75
		c0.676-0.638,0.964-0.438,0.964-3.303v-33.6c0-2.488-0.686-4.2-2.054-5.134c-1.37-0.935-2.986-1.399-4.854-1.399h-6.906v44.6
		l7.35-0.282C1043.241,530.632,1045.615,530.938,1046.875,529.75z"/>
</g>
<polygon fill="#FFFFFF" points="794.992,536.53 794.992,475.722 774.492,475.722 726.492,606.193 745.492,606.193 780.992,506.972 
	780.992,534.819 "/>
<polygon fill="#FFFFFF" points="1151.758,537.785 1151.758,475.722 1172.419,475.722 1220.758,606.193 1201.626,606.193 
	1165.874,506.972 1165.874,540.193 "/>
<path opacity="0.43" fill="#FFFFFF" d="M1254.653,570.294c2.048,0.639-98.333-58.854-283.265-33.783
	c-155.596,21.095-308.235-26.439-289.735-19.829c8.786,3.139,122.75,60.068,286.5,37.455
	C1122.048,532.885,1217.758,558.787,1254.653,570.294z"/>
</svg>
