<?xml version="1.0" encoding="utf-8"?>
<!-- Generator: Adobe Illustrator 17.0.0, SVG Export Plug-In . SVG Version: 6.00 Build 0)  -->
<!DOCTYPE svg PUBLIC "-//W3C//DTD SVG 1.1//EN" "http://www.w3.org/Graphics/SVG/1.1/DTD/svg11.dtd">
<svg version="1.1" id="Capa_1" xmlns="http://www.w3.org/2000/svg" xmlns:xlink="http://www.w3.org/1999/xlink" x="0px" y="0px"
	 width="1920px" height="1080px" viewBox="0 0 1920 1080" enable-background="new 0 0 1920 1080" xml:space="preserve">
<g>
	<path fill="#FFFFFF" d="M928.377,473.248v112.561c-0.126,4.357-1.681,8.059-4.667,11.106c-2.986,3.051-6.659,4.696-11.014,4.947
		h-10.08c-2.239,0-4.357-0.438-6.347-1.307c-1.992-0.869-3.704-2.021-5.133-3.454c-1.433-1.429-2.584-3.108-3.453-5.04
		c-0.872-1.928-1.308-4.013-1.308-6.253V476.795c0-0.994,0.403-1.835,1.214-2.52c0.808-0.683,1.709-1.027,2.707-1.027h9.146v110.309
		c0,1.873,0.653,3.491,1.96,4.862s2.894,2.057,4.76,2.057h2.054c1.989,0,3.669-0.653,5.04-1.963
		c1.367-1.307,2.053-2.961,2.053-4.956V473.248H928.377z"/>
	<path fill="#FFFFFF" d="M1060.905,600.929h-13.066v-45.667c0-3.234,0.314-6.413-1.054-7.533c-1.37-1.12-3.986-0.68-5.853-0.68
		h-6.907v53.88h-13.066V473.248h23.782c2.229,0,4.334,0.405,6.317,1.214c1.98,0.811,3.684,1.931,5.107,3.359
		c1.423,1.433,2.569,3.112,3.438,5.04c0.866,1.932,1.301,4.014,1.301,6.254v39.573c0,2.491-0.276,4.48-0.828,5.974
		c-0.554,1.493-1.138,2.613-1.75,3.359c-0.735,0.873-1.534,1.494-2.392,1.867c0.857,0.499,1.656,1.307,2.392,2.427
		c0.612,0.997,1.196,2.272,1.75,3.826c0.552,1.558,0.828,3.518,0.828,5.881V600.929z M1046.875,529.75
		c0.676-0.637,0.964-0.438,0.964-3.302v-33.6c0-2.488-0.686-4.2-2.054-5.134c-1.37-0.934-2.986-1.399-4.853-1.399h-6.907v44.6
		l7.35-0.283C1043.241,530.632,1045.615,530.938,1046.875,529.75z"/>
</g>
<polygon fill="#FFFFFF" points="794.992,536.53 794.992,475.722 774.492,475.722 726.492,606.193 745.492,606.193 780.992,506.972 
	780.992,534.819 "/>
<polygon fill="#FFFFFF" points="1151.758,537.786 1151.758,475.722 1172.419,475.722 1220.758,606.193 1201.626,606.193 
	1165.874,506.972 1165.874,540.193 "/>
<path opacity="0.43" fill="#FFFFFF" d="M1254.653,570.294c2.048,0.639-98.333-58.854-283.264-33.783
	c-155.596,21.095-308.236-26.439-289.736-19.829c8.786,3.139,122.75,60.068,286.5,37.455
	C1122.048,532.885,1217.758,558.788,1254.653,570.294z"/>
</svg>
